<?xml version="1.0" encoding="UTF-8" standalone="no"?>
<!DOCTYPE svg PUBLIC "-//W3C//DTD SVG 1.1//EN"
 "http://www.w3.org/Graphics/SVG/1.1/DTD/svg11.dtd">
<!-- Generated by graphviz version 2.50.0 (20211204.2007)
 -->
<!-- Pages: 1 -->
<svg width="1106pt" height="640pt"
 viewBox="0.00 0.00 1106.00 640.40" xmlns="http://www.w3.org/2000/svg" xmlns:xlink="http://www.w3.org/1999/xlink">
<g id="graph0" class="graph" transform="scale(1 1) rotate(0) translate(4 636.4)">
<polygon fill="white" stroke="transparent" points="-4,4 -4,-636.4 1102,-636.4 1102,4 -4,4"/>
<!-- 1 -->
<g id="node1" class="node">
<title>1</title>
<g id="a_node1"><a xlink:title="&lt;b&gt;Previous studies&lt;/b&gt;">
<polygon fill="#f0f0f0" stroke="black" stroke-width="0" points="334.8,-632.4 190.8,-632.4 190.8,-596.4 334.8,-596.4 334.8,-632.4"/>
<text text-anchor="start" x="223.3" y="-612.9" font-family="Helvetica,sans-Serif" font-weight="bold" font-size="10.00">Previous studies</text>
</a>
</g>
</g>
<!-- 2 -->
<g id="node2" class="node">
<title>2</title>
<g id="a_node2"><a xlink:title="&lt;b&gt;Identification of new studies via databases and registers&lt;/b&gt;">
<polygon fill="#ffc000" stroke="black" stroke-width="0" points="688,-632.4 410,-632.4 410,-596.4 688,-596.4 688,-632.4"/>
<text text-anchor="start" x="418" y="-612.9" font-family="Helvetica,sans-Serif" font-weight="bold" font-size="10.00">Identification of new studies via databases and registers</text>
</a>
</g>
</g>
<!-- 3 -->
<g id="node3" class="node">
<title>3</title>
<g id="a_node3"><a xlink:title="&lt;b&gt;Identification of new studies via other methods&lt;/b&gt;">
<polygon fill="#f0f0f0" stroke="black" stroke-width="0" points="1048.1,-632.4 813.1,-632.4 813.1,-596.4 1048.1,-596.4 1048.1,-632.4"/>
<text text-anchor="start" x="821.1" y="-612.9" font-family="Helvetica,sans-Serif" font-weight="bold" font-size="10.00">Identification of new studies via other methods</text>
</a>
</g>
</g>
<!-- 4 -->
<g id="node4" class="node">
<title>4</title>
<g id="a_node4"><a xlink:title="&lt;b&gt;Identification&lt;/b&gt;">
<polygon fill="#95cbff" stroke="black" stroke-width="0" points="144,-546 0,-546 0,-510 144,-510 144,-546"/>
<text text-anchor="start" x="41.5" y="-526.5" font-family="Helvetica,sans-Serif" font-weight="bold" font-size="10.00">Identification</text>
</a>
</g>
</g>
<!-- 5 -->
<g id="node5" class="node">
<title>5</title>
<g id="a_node5"><a xlink:title="&lt;b&gt;Screening&lt;/b&gt;">
<polygon fill="#95cbff" stroke="black" stroke-width="0" points="144,-344.4 0,-344.4 0,-308.4 144,-308.4 144,-344.4"/>
<text text-anchor="start" x="48" y="-324.9" font-family="Helvetica,sans-Serif" font-weight="bold" font-size="10.00">Screening</text>
</a>
</g>
</g>
<!-- 6 -->
<g id="node6" class="node">
<title>6</title>
<g id="a_node6"><a xlink:title="&lt;b&gt;Included&lt;/b&gt;">
<polygon fill="#95cbff" stroke="black" stroke-width="0" points="144,-92.4 0,-92.4 0,-56.4 144,-56.4 144,-92.4"/>
<text text-anchor="start" x="51.5" y="-72.9" font-family="Helvetica,sans-Serif" font-weight="bold" font-size="10.00">Included</text>
</a>
</g>
</g>
<!-- 7 -->
<g id="node7" class="node">
<title>7</title>
<g id="a_node7"><a xlink:title="Studies included in previous&lt;br/&gt;version of review&lt;br/&gt;&lt;i&gt;n&lt;/i&gt; = 0&lt;br/&gt;Reports of studies included in&lt;br/&gt;previous version of review&lt;br/&gt;&lt;i&gt;n&lt;/i&gt; = 0">
<polygon fill="#f0f0f0" stroke="black" stroke-width="0" points="335.8,-562 189.8,-562 189.8,-494 335.8,-494 335.8,-562"/>
<text text-anchor="start" x="201.3" y="-551" font-family="Helvetica,sans-Serif" font-size="10.00">Studies included in previous</text>
<text text-anchor="start" x="225.3" y="-541" font-family="Helvetica,sans-Serif" font-size="10.00">version of review</text>
<text text-anchor="start" x="250.8" y="-531" font-family="Helvetica,sans-Serif" font-style="italic" font-size="10.00">n</text>
<text text-anchor="start" x="256.8" y="-531" font-family="Helvetica,sans-Serif" font-size="10.00"> = 0</text>
<text text-anchor="start" x="197.8" y="-521" font-family="Helvetica,sans-Serif" font-size="10.00">Reports of studies included in</text>
<text text-anchor="start" x="205.3" y="-511" font-family="Helvetica,sans-Serif" font-size="10.00">previous version of review</text>
<text text-anchor="start" x="250.8" y="-501" font-family="Helvetica,sans-Serif" font-style="italic" font-size="10.00">n</text>
<text text-anchor="start" x="256.8" y="-501" font-family="Helvetica,sans-Serif" font-size="10.00"> = 0</text>
</a>
</g>
</g>
<!-- 7.5 -->
<g id="node23" class="node">
<title>7.5</title>
<ellipse fill="none" stroke="black" cx="262.8" cy="-124.8" rx="0.5" ry="0.5"/>
</g>
<!-- 7&#45;&gt;7.5 -->
<g id="edge1" class="edge">
<title>7&#45;&gt;7.5</title>
<path fill="none" stroke="black" d="M262.8,-493.97C262.8,-399.8 262.8,-141.63 262.8,-125.58"/>
</g>
<!-- 8 -->
<g id="node8" class="node">
<title>8</title>
<g id="a_node8"><a xlink:title="&lt;b&gt;Records identified from:&lt;/b&gt;&lt;br/&gt;Database or Register 1&lt;br/&gt;&lt;i&gt;n&lt;/i&gt; = 0&lt;br/&gt;Database or Register 2&lt;br/&gt;&lt;i&gt;n&lt;/i&gt; = 0&lt;br/&gt;Database or Register 3&lt;br/&gt;&lt;i&gt;n&lt;/i&gt; = 0">
<polygon fill="white" stroke="black" points="525.6,-567 381.6,-567 381.6,-489 525.6,-489 525.6,-567"/>
<text text-anchor="start" x="396.6" y="-556" font-family="Helvetica,sans-Serif" font-weight="bold" font-size="10.00">Records identified from:</text>
<text text-anchor="start" x="402.6" y="-546" font-family="Helvetica,sans-Serif" font-size="10.00">Database or Register 1</text>
<text text-anchor="start" x="441.6" y="-536" font-family="Helvetica,sans-Serif" font-style="italic" font-size="10.00">n</text>
<text text-anchor="start" x="447.6" y="-536" font-family="Helvetica,sans-Serif" font-size="10.00"> = 0</text>
<text text-anchor="start" x="402.6" y="-526" font-family="Helvetica,sans-Serif" font-size="10.00">Database or Register 2</text>
<text text-anchor="start" x="441.6" y="-516" font-family="Helvetica,sans-Serif" font-style="italic" font-size="10.00">n</text>
<text text-anchor="start" x="447.6" y="-516" font-family="Helvetica,sans-Serif" font-size="10.00"> = 0</text>
<text text-anchor="start" x="402.6" y="-506" font-family="Helvetica,sans-Serif" font-size="10.00">Database or Register 3</text>
<text text-anchor="start" x="441.6" y="-496" font-family="Helvetica,sans-Serif" font-style="italic" font-size="10.00">n</text>
<text text-anchor="start" x="447.6" y="-496" font-family="Helvetica,sans-Serif" font-size="10.00"> = 0</text>
</a>
</g>
</g>
<!-- 9 -->
<g id="node9" class="node">
<title>9</title>
<g id="a_node9"><a xlink:title="&lt;b&gt;Records removed before&lt;br/&gt;screening:&lt;/b&gt;&lt;br/&gt;Duplicate records removed&lt;br/&gt;&lt;i&gt;n&lt;/i&gt; = 0&lt;br/&gt;Records marked as ineligible by&lt;br/&gt;automation tools&lt;br/&gt;&lt;i&gt;n&lt;/i&gt; = 0&lt;br/&gt;Records removed for other reasons&lt;br/&gt;&lt;i&gt;n&lt;/i&gt; = 0">
<polygon fill="white" stroke="black" points="729.4,-577 559.4,-577 559.4,-479 729.4,-479 729.4,-577"/>
<text text-anchor="start" x="586.9" y="-566" font-family="Helvetica,sans-Serif" font-weight="bold" font-size="10.00">Records removed before</text>
<text text-anchor="start" x="619.9" y="-556" font-family="Helvetica,sans-Serif" font-weight="bold" font-size="10.00">screening:</text>
<text text-anchor="start" x="585.4" y="-546" font-family="Helvetica,sans-Serif" font-size="10.00">Duplicate records removed</text>
<text text-anchor="start" x="632.4" y="-536" font-family="Helvetica,sans-Serif" font-style="italic" font-size="10.00">n</text>
<text text-anchor="start" x="638.4" y="-536" font-family="Helvetica,sans-Serif" font-size="10.00"> = 0</text>
<text text-anchor="start" x="574.4" y="-526" font-family="Helvetica,sans-Serif" font-size="10.00">Records marked as ineligible by</text>
<text text-anchor="start" x="607.9" y="-516" font-family="Helvetica,sans-Serif" font-size="10.00">automation tools</text>
<text text-anchor="start" x="632.4" y="-506" font-family="Helvetica,sans-Serif" font-style="italic" font-size="10.00">n</text>
<text text-anchor="start" x="638.4" y="-506" font-family="Helvetica,sans-Serif" font-size="10.00"> = 0</text>
<text text-anchor="start" x="567.4" y="-496" font-family="Helvetica,sans-Serif" font-size="10.00">Records removed for other reasons</text>
<text text-anchor="start" x="632.4" y="-486" font-family="Helvetica,sans-Serif" font-style="italic" font-size="10.00">n</text>
<text text-anchor="start" x="638.4" y="-486" font-family="Helvetica,sans-Serif" font-size="10.00"> = 0</text>
</a>
</g>
</g>
<!-- 8&#45;&gt;9 -->
<g id="edge3" class="edge">
<title>8&#45;&gt;9</title>
<path fill="none" stroke="black" d="M525.73,-528C525.73,-528 549.34,-528 549.34,-528"/>
<polygon fill="black" stroke="black" points="549.34,-531.5 559.34,-528 549.34,-524.5 549.34,-531.5"/>
</g>
<!-- 10 -->
<g id="node10" class="node">
<title>10</title>
<g id="a_node10"><a xlink:title="Records screened&lt;br/&gt;&lt;i&gt;n&lt;/i&gt; = 0">
<polygon fill="white" stroke="black" points="525.6,-445.2 381.6,-445.2 381.6,-409.2 525.6,-409.2 525.6,-445.2"/>
<text text-anchor="start" x="413.6" y="-430.2" font-family="Helvetica,sans-Serif" font-size="10.00">Records screened</text>
<text text-anchor="start" x="441.6" y="-420.2" font-family="Helvetica,sans-Serif" font-style="italic" font-size="10.00">n</text>
<text text-anchor="start" x="447.6" y="-420.2" font-family="Helvetica,sans-Serif" font-size="10.00"> = 0</text>
</a>
</g>
</g>
<!-- 8&#45;&gt;10 -->
<g id="edge4" class="edge">
<title>8&#45;&gt;10</title>
<path fill="none" stroke="black" d="M453.6,-488.74C453.6,-488.74 453.6,-455.44 453.6,-455.44"/>
<polygon fill="black" stroke="black" points="457.1,-455.44 453.6,-445.44 450.1,-455.45 457.1,-455.44"/>
</g>
<!-- 11 -->
<g id="node11" class="node">
<title>11</title>
<g id="a_node11"><a xlink:title="Records excluded&lt;br/&gt;&lt;i&gt;n&lt;/i&gt; = 0">
<polygon fill="white" stroke="black" points="716.4,-445.2 572.4,-445.2 572.4,-409.2 716.4,-409.2 716.4,-445.2"/>
<text text-anchor="start" x="604.9" y="-430.2" font-family="Helvetica,sans-Serif" font-size="10.00">Records excluded</text>
<text text-anchor="start" x="632.4" y="-420.2" font-family="Helvetica,sans-Serif" font-style="italic" font-size="10.00">n</text>
<text text-anchor="start" x="638.4" y="-420.2" font-family="Helvetica,sans-Serif" font-size="10.00"> = 0</text>
</a>
</g>
</g>
<!-- 10&#45;&gt;11 -->
<g id="edge5" class="edge">
<title>10&#45;&gt;11</title>
<path fill="none" stroke="black" d="M525.73,-427C525.73,-427 562.16,-427 562.16,-427"/>
<polygon fill="black" stroke="black" points="562.16,-430.5 572.16,-427 562.16,-423.5 562.16,-430.5"/>
</g>
<!-- 12 -->
<g id="node12" class="node">
<title>12</title>
<g id="a_node12"><a xlink:title="Reports sought for retrieval&lt;br/&gt;&lt;i&gt;n&lt;/i&gt; = 0">
<polygon fill="white" stroke="black" points="525.6,-344.4 381.6,-344.4 381.6,-308.4 525.6,-308.4 525.6,-344.4"/>
<text text-anchor="start" x="394.1" y="-329.4" font-family="Helvetica,sans-Serif" font-size="10.00">Reports sought for retrieval</text>
<text text-anchor="start" x="441.6" y="-319.4" font-family="Helvetica,sans-Serif" font-style="italic" font-size="10.00">n</text>
<text text-anchor="start" x="447.6" y="-319.4" font-family="Helvetica,sans-Serif" font-size="10.00"> = 0</text>
</a>
</g>
</g>
<!-- 10&#45;&gt;12 -->
<g id="edge6" class="edge">
<title>10&#45;&gt;12</title>
<path fill="none" stroke="black" d="M453.6,-409.18C453.6,-409.18 453.6,-354.6 453.6,-354.6"/>
<polygon fill="black" stroke="black" points="457.1,-354.6 453.6,-344.6 450.1,-354.6 457.1,-354.6"/>
</g>
<!-- 13 -->
<g id="node13" class="node">
<title>13</title>
<g id="a_node13"><a xlink:title="Reports not retrieved&lt;br/&gt;&lt;i&gt;n&lt;/i&gt; = 0">
<polygon fill="white" stroke="black" points="716.4,-344.4 572.4,-344.4 572.4,-308.4 716.4,-308.4 716.4,-344.4"/>
<text text-anchor="start" x="598.4" y="-329.4" font-family="Helvetica,sans-Serif" font-size="10.00">Reports not retrieved</text>
<text text-anchor="start" x="632.4" y="-319.4" font-family="Helvetica,sans-Serif" font-style="italic" font-size="10.00">n</text>
<text text-anchor="start" x="638.4" y="-319.4" font-family="Helvetica,sans-Serif" font-size="10.00"> = 0</text>
</a>
</g>
</g>
<!-- 12&#45;&gt;13 -->
<g id="edge7" class="edge">
<title>12&#45;&gt;13</title>
<path fill="none" stroke="black" d="M525.73,-326C525.73,-326 562.16,-326 562.16,-326"/>
<polygon fill="black" stroke="black" points="562.16,-329.5 572.16,-326 562.16,-322.5 562.16,-329.5"/>
</g>
<!-- 14 -->
<g id="node14" class="node">
<title>14</title>
<g id="a_node14"><a xlink:title="Reports assessed for eligibility&lt;br/&gt;&lt;i&gt;n&lt;/i&gt; = 0">
<polygon fill="white" stroke="black" points="529.1,-243.6 378.1,-243.6 378.1,-207.6 529.1,-207.6 529.1,-243.6"/>
<text text-anchor="start" x="386.1" y="-228.6" font-family="Helvetica,sans-Serif" font-size="10.00">Reports assessed for eligibility</text>
<text text-anchor="start" x="441.6" y="-218.6" font-family="Helvetica,sans-Serif" font-style="italic" font-size="10.00">n</text>
<text text-anchor="start" x="447.6" y="-218.6" font-family="Helvetica,sans-Serif" font-size="10.00"> = 0</text>
</a>
</g>
</g>
<!-- 12&#45;&gt;14 -->
<g id="edge8" class="edge">
<title>12&#45;&gt;14</title>
<path fill="none" stroke="black" d="M453.6,-308.38C453.6,-308.38 453.6,-253.8 453.6,-253.8"/>
<polygon fill="black" stroke="black" points="457.1,-253.8 453.6,-243.8 450.1,-253.8 457.1,-253.8"/>
</g>
<!-- 15 -->
<g id="node15" class="node">
<title>15</title>
<g id="a_node15"><a xlink:title="&lt;b&gt;Reports excluded:&lt;/b&gt;&lt;br/&gt;Reason 1&lt;br/&gt;&lt;i&gt;n&lt;/i&gt; = 0&lt;br/&gt;Reason 2&lt;br/&gt;&lt;i&gt;n&lt;/i&gt; = 0&lt;br/&gt;Reason 3&lt;br/&gt;&lt;i&gt;n&lt;/i&gt; = 0">
<polygon fill="white" stroke="black" points="716.4,-264.6 572.4,-264.6 572.4,-186.6 716.4,-186.6 716.4,-264.6"/>
<text text-anchor="start" x="601.9" y="-253.6" font-family="Helvetica,sans-Serif" font-weight="bold" font-size="10.00">Reports excluded:</text>
<text text-anchor="start" x="622.9" y="-243.6" font-family="Helvetica,sans-Serif" font-size="10.00">Reason 1</text>
<text text-anchor="start" x="632.4" y="-233.6" font-family="Helvetica,sans-Serif" font-style="italic" font-size="10.00">n</text>
<text text-anchor="start" x="638.4" y="-233.6" font-family="Helvetica,sans-Serif" font-size="10.00"> = 0</text>
<text text-anchor="start" x="622.9" y="-223.6" font-family="Helvetica,sans-Serif" font-size="10.00">Reason 2</text>
<text text-anchor="start" x="632.4" y="-213.6" font-family="Helvetica,sans-Serif" font-style="italic" font-size="10.00">n</text>
<text text-anchor="start" x="638.4" y="-213.6" font-family="Helvetica,sans-Serif" font-size="10.00"> = 0</text>
<text text-anchor="start" x="622.9" y="-203.6" font-family="Helvetica,sans-Serif" font-size="10.00">Reason 3</text>
<text text-anchor="start" x="632.4" y="-193.6" font-family="Helvetica,sans-Serif" font-style="italic" font-size="10.00">n</text>
<text text-anchor="start" x="638.4" y="-193.6" font-family="Helvetica,sans-Serif" font-size="10.00"> = 0</text>
</a>
</g>
</g>
<!-- 14&#45;&gt;15 -->
<g id="edge9" class="edge">
<title>14&#45;&gt;15</title>
<path fill="none" stroke="black" d="M529.28,-225C529.28,-225 562.23,-225 562.23,-225"/>
<polygon fill="black" stroke="black" points="562.23,-228.5 572.23,-225 562.23,-221.5 562.23,-228.5"/>
</g>
<!-- 16 -->
<g id="node16" class="node">
<title>16</title>
<g id="a_node16"><a xlink:title="New studies included in review&lt;br/&gt;&lt;i&gt;n&lt;/i&gt; = 0&lt;br/&gt;Reports of new included studies&lt;br/&gt;&lt;i&gt;n&lt;/i&gt; = 0">
<polygon fill="white" stroke="black" points="532.1,-148.8 375.1,-148.8 375.1,-100.8 532.1,-100.8 532.1,-148.8"/>
<text text-anchor="start" x="385.6" y="-137.8" font-family="Helvetica,sans-Serif" font-size="10.00">New studies included in review</text>
<text text-anchor="start" x="441.6" y="-127.8" font-family="Helvetica,sans-Serif" font-style="italic" font-size="10.00">n</text>
<text text-anchor="start" x="447.6" y="-127.8" font-family="Helvetica,sans-Serif" font-size="10.00"> = 0</text>
<text text-anchor="start" x="383.1" y="-117.8" font-family="Helvetica,sans-Serif" font-size="10.00">Reports of new included studies</text>
<text text-anchor="start" x="441.6" y="-107.8" font-family="Helvetica,sans-Serif" font-style="italic" font-size="10.00">n</text>
<text text-anchor="start" x="447.6" y="-107.8" font-family="Helvetica,sans-Serif" font-size="10.00"> = 0</text>
</a>
</g>
</g>
<!-- 14&#45;&gt;16 -->
<g id="edge10" class="edge">
<title>14&#45;&gt;16</title>
<path fill="none" stroke="black" d="M453.6,-207.58C453.6,-207.58 453.6,-159.1 453.6,-159.1"/>
<polygon fill="black" stroke="black" points="457.1,-159.1 453.6,-149.1 450.1,-159.1 457.1,-159.1"/>
</g>
<!-- 17 -->
<g id="node17" class="node">
<title>17</title>
<g id="a_node17"><a xlink:title="Total studies included in review&lt;br/&gt;&lt;i&gt;n&lt;/i&gt; = 0&lt;br/&gt;Reports of total included studies&lt;br/&gt;&lt;i&gt;n&lt;/i&gt; = 0">
<polygon fill="white" stroke="black" points="532.6,-48 374.6,-48 374.6,0 532.6,0 532.6,-48"/>
<text text-anchor="start" x="385.1" y="-37" font-family="Helvetica,sans-Serif" font-size="10.00">Total studies included in review</text>
<text text-anchor="start" x="441.6" y="-27" font-family="Helvetica,sans-Serif" font-style="italic" font-size="10.00">n</text>
<text text-anchor="start" x="447.6" y="-27" font-family="Helvetica,sans-Serif" font-size="10.00"> = 0</text>
<text text-anchor="start" x="382.6" y="-17" font-family="Helvetica,sans-Serif" font-size="10.00">Reports of total included studies</text>
<text text-anchor="start" x="441.6" y="-7" font-family="Helvetica,sans-Serif" font-style="italic" font-size="10.00">n</text>
<text text-anchor="start" x="447.6" y="-7" font-family="Helvetica,sans-Serif" font-size="10.00"> = 0</text>
</a>
</g>
</g>
<!-- 16&#45;&gt;17 -->
<g id="edge11" class="edge">
<title>16&#45;&gt;17</title>
<path fill="none" stroke="black" d="M453.6,-100.66C453.6,-100.66 453.6,-58.3 453.6,-58.3"/>
<polygon fill="black" stroke="black" points="457.1,-58.3 453.6,-48.3 450.1,-58.3 457.1,-58.3"/>
</g>
<!-- 18 -->
<g id="node18" class="node">
<title>18</title>
<g id="a_node18"><a xlink:title="&lt;b&gt;Records identified from:&lt;/b&gt;&lt;br/&gt;Websites&lt;br/&gt;&lt;i&gt;n&lt;/i&gt; = 0&lt;br/&gt;Organizations&lt;br/&gt;&lt;i&gt;n&lt;/i&gt; = 0&lt;br/&gt;Citation searching&lt;br/&gt;&lt;i&gt;n&lt;/i&gt; = 0&lt;br/&gt;Other&lt;br/&gt;&lt;i&gt;n&lt;/i&gt; = 0">
<polygon fill="#f0f0f0" stroke="black" stroke-width="0" points="907.2,-577 763.2,-577 763.2,-479 907.2,-479 907.2,-577"/>
<text text-anchor="start" x="778.2" y="-566" font-family="Helvetica,sans-Serif" font-weight="bold" font-size="10.00">Records identified from:</text>
<text text-anchor="start" x="814.7" y="-556" font-family="Helvetica,sans-Serif" font-size="10.00">Websites</text>
<text text-anchor="start" x="823.2" y="-546" font-family="Helvetica,sans-Serif" font-style="italic" font-size="10.00">n</text>
<text text-anchor="start" x="829.2" y="-546" font-family="Helvetica,sans-Serif" font-size="10.00"> = 0</text>
<text text-anchor="start" x="804.7" y="-536" font-family="Helvetica,sans-Serif" font-size="10.00">Organizations</text>
<text text-anchor="start" x="823.2" y="-526" font-family="Helvetica,sans-Serif" font-style="italic" font-size="10.00">n</text>
<text text-anchor="start" x="829.2" y="-526" font-family="Helvetica,sans-Serif" font-size="10.00"> = 0</text>
<text text-anchor="start" x="795.7" y="-516" font-family="Helvetica,sans-Serif" font-size="10.00">Citation searching</text>
<text text-anchor="start" x="823.2" y="-506" font-family="Helvetica,sans-Serif" font-style="italic" font-size="10.00">n</text>
<text text-anchor="start" x="829.2" y="-506" font-family="Helvetica,sans-Serif" font-size="10.00"> = 0</text>
<text text-anchor="start" x="822.7" y="-496" font-family="Helvetica,sans-Serif" font-size="10.00">Other</text>
<text text-anchor="start" x="823.2" y="-486" font-family="Helvetica,sans-Serif" font-style="italic" font-size="10.00">n</text>
<text text-anchor="start" x="829.2" y="-486" font-family="Helvetica,sans-Serif" font-size="10.00"> = 0</text>
</a>
</g>
</g>
<!-- 19 -->
<g id="node19" class="node">
<title>19</title>
<g id="a_node19"><a xlink:title="Reports sought for retrieval&lt;br/&gt;&lt;i&gt;n&lt;/i&gt; = 0">
<polygon fill="#f0f0f0" stroke="black" stroke-width="0" points="907.2,-344.4 763.2,-344.4 763.2,-308.4 907.2,-308.4 907.2,-344.4"/>
<text text-anchor="start" x="775.7" y="-329.4" font-family="Helvetica,sans-Serif" font-size="10.00">Reports sought for retrieval</text>
<text text-anchor="start" x="823.2" y="-319.4" font-family="Helvetica,sans-Serif" font-style="italic" font-size="10.00">n</text>
<text text-anchor="start" x="829.2" y="-319.4" font-family="Helvetica,sans-Serif" font-size="10.00"> = 0</text>
</a>
</g>
</g>
<!-- 18&#45;&gt;19 -->
<g id="edge12" class="edge">
<title>18&#45;&gt;19</title>
<path fill="none" stroke="black" d="M835.2,-478.94C835.2,-478.94 835.2,-354.65 835.2,-354.65"/>
<polygon fill="black" stroke="black" points="838.7,-354.65 835.2,-344.65 831.7,-354.65 838.7,-354.65"/>
</g>
<!-- 20 -->
<g id="node20" class="node">
<title>20</title>
<g id="a_node20"><a xlink:title="Reports not retrieved&lt;br/&gt;&lt;i&gt;n&lt;/i&gt; = 0">
<polygon fill="#f0f0f0" stroke="black" stroke-width="0" points="1098,-344.4 954,-344.4 954,-308.4 1098,-308.4 1098,-344.4"/>
<text text-anchor="start" x="980" y="-329.4" font-family="Helvetica,sans-Serif" font-size="10.00">Reports not retrieved</text>
<text text-anchor="start" x="1014" y="-319.4" font-family="Helvetica,sans-Serif" font-style="italic" font-size="10.00">n</text>
<text text-anchor="start" x="1020" y="-319.4" font-family="Helvetica,sans-Serif" font-size="10.00"> = 0</text>
</a>
</g>
</g>
<!-- 19&#45;&gt;20 -->
<g id="edge13" class="edge">
<title>19&#45;&gt;20</title>
<path fill="none" stroke="black" d="M907.33,-326C907.33,-326 943.76,-326 943.76,-326"/>
<polygon fill="black" stroke="black" points="943.76,-329.5 953.76,-326 943.76,-322.5 943.76,-329.5"/>
</g>
<!-- 21 -->
<g id="node21" class="node">
<title>21</title>
<g id="a_node21"><a xlink:title="Reports assessed for eligibility&lt;br/&gt;&lt;i&gt;n&lt;/i&gt; = 0">
<polygon fill="#f0f0f0" stroke="black" stroke-width="0" points="910.7,-243.6 759.7,-243.6 759.7,-207.6 910.7,-207.6 910.7,-243.6"/>
<text text-anchor="start" x="767.7" y="-228.6" font-family="Helvetica,sans-Serif" font-size="10.00">Reports assessed for eligibility</text>
<text text-anchor="start" x="823.2" y="-218.6" font-family="Helvetica,sans-Serif" font-style="italic" font-size="10.00">n</text>
<text text-anchor="start" x="829.2" y="-218.6" font-family="Helvetica,sans-Serif" font-size="10.00"> = 0</text>
</a>
</g>
</g>
<!-- 19&#45;&gt;21 -->
<g id="edge14" class="edge">
<title>19&#45;&gt;21</title>
<path fill="none" stroke="black" d="M835.2,-308.38C835.2,-308.38 835.2,-253.8 835.2,-253.8"/>
<polygon fill="black" stroke="black" points="838.7,-253.8 835.2,-243.8 831.7,-253.8 838.7,-253.8"/>
</g>
<!-- 22 -->
<g id="node22" class="node">
<title>22</title>
<g id="a_node22"><a xlink:title="&lt;b&gt;Reports excluded:&lt;/b&gt;&lt;br/&gt;Reason 1&lt;br/&gt;&lt;i&gt;n&lt;/i&gt; = 0&lt;br/&gt;Reason 2&lt;br/&gt;&lt;i&gt;n&lt;/i&gt; = 0&lt;br/&gt;Reason 3&lt;br/&gt;&lt;i&gt;n&lt;/i&gt; = 0">
<polygon fill="#f0f0f0" stroke="black" stroke-width="0" points="1098,-264.6 954,-264.6 954,-186.6 1098,-186.6 1098,-264.6"/>
<text text-anchor="start" x="983.5" y="-253.6" font-family="Helvetica,sans-Serif" font-weight="bold" font-size="10.00">Reports excluded:</text>
<text text-anchor="start" x="1004.5" y="-243.6" font-family="Helvetica,sans-Serif" font-size="10.00">Reason 1</text>
<text text-anchor="start" x="1014" y="-233.6" font-family="Helvetica,sans-Serif" font-style="italic" font-size="10.00">n</text>
<text text-anchor="start" x="1020" y="-233.6" font-family="Helvetica,sans-Serif" font-size="10.00"> = 0</text>
<text text-anchor="start" x="1004.5" y="-223.6" font-family="Helvetica,sans-Serif" font-size="10.00">Reason 2</text>
<text text-anchor="start" x="1014" y="-213.6" font-family="Helvetica,sans-Serif" font-style="italic" font-size="10.00">n</text>
<text text-anchor="start" x="1020" y="-213.6" font-family="Helvetica,sans-Serif" font-size="10.00"> = 0</text>
<text text-anchor="start" x="1004.5" y="-203.6" font-family="Helvetica,sans-Serif" font-size="10.00">Reason 3</text>
<text text-anchor="start" x="1014" y="-193.6" font-family="Helvetica,sans-Serif" font-style="italic" font-size="10.00">n</text>
<text text-anchor="start" x="1020" y="-193.6" font-family="Helvetica,sans-Serif" font-size="10.00"> = 0</text>
</a>
</g>
</g>
<!-- 21&#45;&gt;22 -->
<g id="edge15" class="edge">
<title>21&#45;&gt;22</title>
<path fill="none" stroke="black" d="M910.88,-225C910.88,-225 943.83,-225 943.83,-225"/>
<polygon fill="black" stroke="black" points="943.83,-228.5 953.83,-225 943.83,-221.5 943.83,-228.5"/>
</g>
<!-- 21.5 -->
<g id="node24" class="node">
<title>21.5</title>
<ellipse fill="none" stroke="black" cx="835.2" cy="-24" rx="0.5" ry="0.5"/>
</g>
<!-- 21&#45;&gt;21.5 -->
<g id="edge16" class="edge">
<title>21&#45;&gt;21.5</title>
<path fill="none" stroke="black" d="M835.2,-207.35C835.2,-160.05 835.2,-36.35 835.2,-24.86"/>
</g>
<!-- 7.5&#45;&gt;16 -->
<g id="edge2" class="edge">
<title>7.5&#45;&gt;16</title>
<path fill="none" stroke="black" d="M262.94,-124C262.94,-124 364.94,-124 364.94,-124"/>
<polygon fill="black" stroke="black" points="364.94,-127.5 374.94,-124 364.94,-120.5 364.94,-127.5"/>
</g>
<!-- 21.5&#45;&gt;17 -->
<g id="edge17" class="edge">
<title>21.5&#45;&gt;17</title>
<path fill="none" stroke="black" d="M835.13,-23C835.13,-23 542.96,-23 542.96,-23"/>
<polygon fill="black" stroke="black" points="542.96,-19.5 532.96,-23 542.96,-26.5 542.96,-19.5"/>
</g>
</g>
</svg>
